PathFileType	4	(X/Y/Z)	pose2sim_0-719.trc
DataRate	CameraRate	NumFrames	NumMarkers	Units	OrigDataRate	OrigDataStartFrame	OrigNumFrames
50	50	5	22	m	50	540	720
Frame#	Time	Hip			RHip			RKnee			RAnkle			RBigToe			RSmallToe			RHeel			LHip			LKnee			LAnkle			LBigToe			LSmallToe			LHeel			Neck			Head			Nose			RShoulder			RElbow			RWrist			LShoulder			LElbow			LWrist			
		X1	Y1	Z1	X2	Y2	Z2	X3	Y3	Z3	X4	Y4	Z4	X5	Y5	Z5	X6	Y6	Z6	X7	Y7	Z7	X8	Y8	Z8	X9	Y9	Z9	X10	Y10	Z10	X11	Y11	Z11	X12	Y12	Z12	X13	Y13	Z13	X14	Y14	Z14	X15	Y15	Z15	X16	Y16	Z16	X17	Y17	Z17	X18	Y18	Z18	X19	Y19	Z19	X20	Y20	Z20	X21	Y21	Z21	X22	Y22	Z22	
540	10.8	0.12443744947343874	0.7983441254515637	-0.09141818908940501	0.028769436767986135	0.784494225449879	-0.0907121270800363	0.005185919160941903	0.42066554867234895	-0.12668647652550077	0.001649039246927042	0.0656534012552351	-0.1567095840709519	-0.022930718720416937	0.03235059701987977	0.007259913218764246	-0.062183612749567345	0.029641395398193073	-0.05023025718293253	0.011111919211238603	0.025364538004366142	-0.1940767882321589	0.22354011990196412	0.7824372713406755	-0.09008285969662454	0.25616275986901865	0.4240427458354056	-0.1254326957947687	0.26376259152143533	0.06971946859675246	-0.14857411403862736	0.27472850049943726	0.03156660114917243	0.025988903209724523	0.3134659525697809	0.02681988539963533	-0.02263025629408622	0.25517149559612284	0.03172439816238849	-0.17782993223100813	0.13158832429778694	1.3580217938581378	-0.07132519538180064	0.13022605355306913	1.57006862577616	-0.014182395915999816	0.12172517853300414	1.444467090220251	0.07165566151213776	-0.029739054563256293	1.2584346488701474	-0.08700922200052656	-0.06475116607468331	1.0135771407952343	-0.01665411995040165	-0.09546780073389406	0.8121818937154378	0.10180056601057222	0.2897564898695843	1.2554047172863914	-0.10096499966648662	0.3267108630689383	1.0088883734368261	-0.026442712022846634	0.36612547481172864	0.8172581520316583	0.0785100863667594
541	10.82	0.12614786114014023	0.7942073252329707	-0.09828839034983071	0.027987653664767274	0.7815293445353082	-0.10117670633828907	0.0067002980599914115	0.42056532086277637	-0.12963943877376483	0.0025058539258758115	0.06927122081464271	-0.15507051826463272	-0.016770824043613287	0.03149902811793474	-0.004158363537513403	-0.05732682192067552	0.0316581590758481	-0.05680860021583817	0.015851545101808653	0.035645650354265264	-0.1886165811247328	0.2283445763498385	0.7806418554920631	-0.10053179658683381	0.2584794965248747	0.4230357466252743	-0.12913662184861294	0.2633739517393894	0.07522749677320631	-0.14716966952895233	0.27755627865643506	0.028344073156172465	0.006749982811838373	0.32323428488871186	0.030930073620405795	-0.03966158466616405	0.2558894611992926	0.03688568739029755	-0.1760258657807687	0.13405030368520135	1.3549394094140697	-0.07309000009435272	0.1329838799111411	1.5710533414597776	-0.025382780497363887	0.12700063941682782	1.4482669835171196	0.0783119082941764	-0.02760447675052423	1.2629174033812036	-0.08286255880782653	-0.065077020256636	1.0204339845664248	-0.012904603288137842	-0.09704990235412182	0.816190455049088	0.11030030740294715	0.2890390099858851	1.2541345933552461	-0.10474759578252095	0.32701519685467734	1.015259370169338	-0.02654835126765681	0.36587653493953703	0.8202893905779437	0.08297055402232928
542	10.84	0.12783510329562447	0.7939962198377829	-0.1000693438702412	0.028638748712003	0.782730568522262	-0.10718906780084143	0.007591159699039095	0.4215485418371085	-0.13145188253012094	0.00309939514195844	0.07120736419474819	-0.1549001460750665	-0.02535190449572786	0.030698482314476236	-0.010594589205658199	-0.06096657970940366	0.03238985310958036	-0.06234731849539154	0.012531478165553712	0.034960236976640746	-0.19030952120281994	0.2285270330225599	0.7830630477023756	-0.10390456643352745	0.25730309965717185	0.4224533300563834	-0.13205504135792626	0.26463617019638563	0.075413482481522	-0.14625571535363896	0.2765051132019094	0.02857985682173302	0.0037992133775612046	0.32174532693956354	0.03367801779691871	-0.03758897797150349	0.2558796681473228	0.039311442488809904	-0.17297296305523274	0.13425444924766783	1.354705734380705	-0.0772846731945933	0.1322262938861188	1.5718366265425407	-0.0325714721788623	0.128551754360841	1.4494762241942256	0.07623396951252039	-0.02552693158172795	1.2631842223858747	-0.08646677557106333	-0.06538612889118388	1.0232793671586147	-0.014777395674856796	-0.09837468539831468	0.8255228150386104	0.11983660563823315	0.28908267593898257	1.2556979067290692	-0.10691074121940007	0.3268692395576164	1.020279144617607	-0.022455522250761757	0.36107354154598714	0.8309943066907557	0.10419961284204539
543	10.86	0.12653639536404424	0.7962515419513356	-0.0979724219605087	0.025823134546978644	0.7835107634046085	-0.10173666065653805	0.007297291112541884	0.42090655886307793	-0.13136458582525445	0.0015836800773348248	0.07277290387968642	-0.15497214724478411	-0.020719292977862146	0.030677556171536224	-0.011422331716794597	-0.059952486103336165	0.031304197497358965	-0.058872858652174634	0.01469573836890235	0.03664950877945415	-0.18561828965108743	0.22868174499972996	0.7818093913454588	-0.10392068417089965	0.2561029167763129	0.4221086117806074	-0.13238133382535353	0.2620836703515121	0.07355754161216976	-0.14525855594294043	0.2737130882170797	0.026716669144240184	0.0012312794244793753	0.3203702086346454	0.03185736105309861	-0.042396034035086974	0.2545667539282568	0.037386110186601366	-0.1745706245083663	0.134229234760344	1.3551805888564559	-0.08024517415188835	0.1334939011854998	1.5715238112370218	-0.03839153392264246	0.12995966317466415	1.4487565034713807	0.07078099258974017	-0.025785159314137548	1.263625979335284	-0.08905142852775262	-0.0650663226674751	1.029164235455113	-0.011774261144501712	-0.10172517066963575	0.8361142405428036	0.1317698345473639	0.28775301232442624	1.255766899342092	-0.10652448093267645	0.3269388443125706	1.0215856482259988	-0.018426306696210183	0.36939281553773246	0.8401984907408728	0.1073522486554398
544	10.88	0.12659043434788433	0.8013029826884	-0.10368150859608902	0.02816012245001181	0.7889070973479021	-0.10368697654391253	0.006082280711836056	0.42546217345029436	-0.12697676873687702	0.0008128981315025919	0.0715597969371879	-0.15598030992467657	-0.023941257694287413	0.028851430354318794	-0.004103306561541036	-0.06425876312982258	0.02929357721600342	-0.05894385181171423	0.014758079281884023	0.029470462182850318	-0.19368466772611914	0.22726851276796506	0.7863631869667164	-0.10388011275773386	0.255196675846155	0.4257332045854338	-0.127765480328267	0.2657715794313526	0.0725395967334154	-0.15238021381256092	0.2746065970245257	0.030629134620322806	0.021255772893346982	0.3123898975557907	0.028852738613383288	-0.023762120109905416	0.2559757951215389	0.03477820097519626	-0.18418542770788174	0.13305275743482112	1.3615491162614788	-0.08287057913890043	0.13493562437355022	1.5712419507559805	-0.03309628004824587	0.12748659159211073	1.4464232441887013	0.06772020244280894	-0.030427276997124515	1.2603628694615496	-0.09890353474657879	-0.06567872752655317	1.022009427548478	-0.008005137467609143	-0.1013284590678151	0.8430459665181369	0.14987798130131996	0.28800077267183166	1.2589330017409075	-0.10109091365423184	0.32836066566084093	1.023056898318217	-0.027426825815581382	0.3697770464672593	0.8557291982905596	0.12141099045221522
